<?xml version="1.0" encoding="utf-8"?>
<?xml-stylesheet type="text/xsl" href="rss1.xsl"?>
<rss version="2.0" xmlns:atom="http://www.w3.org/2005/Atom" xmlns:content="http://purl.org/rss/1.0/modules/content/" xmlns:dc="http://purl.org/dc/elements/1.1/" xmlns:media="http://search.yahoo.com/mrss/">
<channel>
 <title>sharemania</title>
 <link>http://www.sharemania.us/</link>
 <atom:link href="http://www.gettyimg.com/" rel="self" type="application/rss+xml" />

 
                <item>
                <title><![CDATA[【UPSCALED】Britney Spears - Everytime (Starlight AI) ~60fps]]></title>
                <link><![CDATA[https://sharemania.us/threads/britney-spears-everytime-starlight-ai-60fps.282375/]]></link>
                <description><![CDATA[<article>
				<blockquote class="messageText SelectQuoteContainer ugc baseHtml">
					
					<span style="font-family: 'Courier New'"><span style="font-size: 12px">Video<br>
ID                                       : 1<br>
Format                                   : AVC<br>
Format/Info                              : Advanced Video Codec<br>
Format profile                           : Main@L4.2<br>
Format settings                          : CABAC / 1 Ref Frames<br>
Format settings, CABAC                   : Yes<br>
Format settings, Reference frames        : 1 frame<br>
Format settings, GOP                     : M=1, N=30<br>
Muxing mode                              : Container profile=Baseline@3.0<br>
Codec ID                                 : avc1<br>
Codec ID/Info                            : Advanced Video Coding<br>
Duration                                 : 4 min 8 s<br>
Bit rate                                 : 8 920 kb/s<br>
Width                                    : 1 920 pixels<br>
Height                                   : 1 080 pixels<br>
Display aspect ratio                     : 16:9<br>
Frame rate mode                          : Constant<br>
Frame rate                               : 60.000 FPS<br>
Standard                                 : Component<br>
Color space                              : YUV<br>
Chroma subsampling                       : 4:2:0<br>
Bit depth                                : 8 bits<br>
Scan type                                : Progressive<br>
Bits/(Pixel*Frame)                       : 0.072<br>
Stream size                              : 264 MiB (98%)<br>
Language                                 : English<br>
Color range                              : Limited<br>
Color primaries                          : BT.709<br>
Transfer characteristics                 : BT.709<br>
Matrix coefficients                      : BT.709<br>
Codec configuration box                  : avcC<br>
<br>
Audio<br>
ID                                       : 2<br>
Format                                   : AAC LC<br>
Format/Info                              : Advanced Audio Codec Low Complexity<br>
Codec ID                                 : mp4a-40-2<br>
Duration                                 : 4 min 8 s<br>
Source duration                          : 4 min 8 s<br>
Bit rate mode                            : Constant<br>
Bit rate                                 : 192 kb/s<br>
Channel(s)                               : 2 channels<br>
Channel layout                           : L R<br>
Sampling rate                            : 44.1 kHz<br>
Frame rate                               : 43.066 FPS (1024 SPF)<br>
Compression mode                         : Lossy<br>
Stream size                              : 5.68 MiB (2%)<br>
Source stream size                       : 5.68 MiB (2%)<br>
Title                                    : Stereo<br>
Language                                 : English<br>
Default                                  : Yes<br>
Alternate group                          : 1</span></span><br>
<br>
<img src="https://i.imgur.com/51v55ZA.png" class="bbCodeImage LbImage" alt="[​IMG]" data-url="https://i.imgur.com/51v55ZA.png" style=""><br>
<br>
<span style="font-family: 'Courier New'"><span style="font-size: 12px"><i><b><span style="font-family: 'Tahoma'"><span style="font-size: 26px"><span style="color: rgb(0, 0, 255)">Click Here:</span></span></span></b></i></span></span><br>
<span style="font-family: 'Courier New'"><span style="font-size: 12px">



<div class="bbCodeBlock bbCodeVfcHH HiddenContent">
	<div class="attribution type">Hidden Content:</div>
	<blockquote>You must either reply or click 'Like' to see the hidden information contained here.</blockquote>
</div></span></span>
					<div class="messageTextEndMarker">&nbsp;</div>
				</blockquote>
			</article>]]></description>
                <author><![CDATA[austin_066]]></author>
                </item>

                
                <item>
                <title><![CDATA[【UPSCALED】Katy Perry - Walking On Air (Live from Saturday Night Live) (Starlight AI) ~60fps]]></title>
                <link><![CDATA[https://sharemania.us/threads/katy-perry-walking-on-air-live-from-saturday-night-live-starlight-ai-60fps.282377/]]></link>
                <description><![CDATA[<article>
				<blockquote class="messageText SelectQuoteContainer ugc baseHtml">
					
					<span style="font-family: 'Courier New'"><span style="font-size: 12px">Video<br>
ID                                       : 1<br>
Format                                   : AVC<br>
Format/Info                              : Advanced Video Codec<br>
Format profile                           : Main@L4.2<br>
Format settings                          : CABAC / 1 Ref Frames<br>
Format settings, CABAC                   : Yes<br>
Format settings, Reference frames        : 1 frame<br>
Format settings, GOP                     : M=1, N=30<br>
Muxing mode                              : Container profile=Baseline@3.0<br>
Codec ID                                 : V_MPEG4/ISO/AVC<br>
Duration                                 : 4 min 6 s<br>
Bit rate                                 : 15.0 Mb/s<br>
Width                                    : 1 920 pixels<br>
Height                                   : 1 080 pixels<br>
Display aspect ratio                     : 16:9<br>
Frame rate mode                          : Constant<br>
Frame rate                               : 60.000 FPS<br>
Standard                                 : Component<br>
Color space                              : YUV<br>
Chroma subsampling                       : 4:2:0<br>
Bit depth                                : 8 bits<br>
Scan type                                : Progressive<br>
Bits/(Pixel*Frame)                       : 0.121<br>
Stream size                              : 442 MiB (99%)<br>
Default                                  : Yes<br>
Forced                                   : No<br>
Color range                              : Limited<br>
Color primaries                          : BT.709<br>
Transfer characteristics                 : BT.709<br>
Matrix coefficients                      : BT.709<br>
<br>
Audio<br>
ID                                       : 2<br>
Format                                   : AAC LC<br>
Format/Info                              : Advanced Audio Codec Low Complexity<br>
Codec ID                                 : A_AAC-2<br>
Duration                                 : 4 min 5 s<br>
Bit rate                                 : 192 kb/s<br>
Channel(s)                               : 2 channels<br>
Channel layout                           : L R<br>
Sampling rate                            : 44.1 kHz<br>
Frame rate                               : 43.066 FPS (1024 SPF)<br>
Compression mode                         : Lossy<br>
Stream size                              : 5.63 MiB (1%)<br>
Default                                  : Yes<br>
Forced                                   : No</span></span><br>
<br>
<img src="https://i.imgur.com/YBh5At3.png" class="bbCodeImage LbImage" alt="[​IMG]" data-url="https://i.imgur.com/YBh5At3.png" style=""><br>
<br>
<span style="font-family: 'Courier New'"><span style="font-size: 12px"><i><b><span style="font-family: 'Tahoma'"><span style="font-size: 26px"><span style="color: rgb(0, 0, 255)">Click Here:</span></span></span></b></i></span></span><br>
<span style="font-family: 'Courier New'"><span style="font-size: 12px">



<div class="bbCodeBlock bbCodeVfcHH HiddenContent">
	<div class="attribution type">Hidden Content:</div>
	<blockquote>You must either reply or click 'Like' to see the hidden information contained here.</blockquote>
</div></span></span>
					<div class="messageTextEndMarker">&nbsp;</div>
				</blockquote>
			</article>]]></description>
                <author><![CDATA[austin_066]]></author>
                </item>

                
                <item>
                <title><![CDATA[【UPSCALED】Madonna - Rain (Starlight AI) ~60fps]]></title>
                <link><![CDATA[https://sharemania.us/threads/madonna-rain-starlight-ai-60fps.282373/]]></link>
                <description><![CDATA[<article>
				<blockquote class="messageText SelectQuoteContainer ugc baseHtml">
					
					<span style="font-family: 'Courier New'"><span style="font-size: 12px">Video<br>
ID                                       : 1<br>
Format                                   : AVC<br>
Format/Info                              : Advanced Video Codec<br>
Format profile                           : Main@L4.2<br>
Format settings                          : CABAC / 1 Ref Frames<br>
Format settings, CABAC                   : Yes<br>
Format settings, Reference frames        : 1 frame<br>
Format settings, GOP                     : M=1, N=30<br>
Muxing mode                              : Container profile=Baseline@3.0<br>
Codec ID                                 : V_MPEG4/ISO/AVC<br>
Duration                                 : 4 min 33 s<br>
Bit rate                                 : 14.5 Mb/s<br>
Width                                    : 1 920 pixels<br>
Height                                   : 1 080 pixels<br>
Display aspect ratio                     : 16:9<br>
Frame rate mode                          : Constant<br>
Frame rate                               : 60.000 FPS<br>
Standard                                 : Component<br>
Color space                              : YUV<br>
Chroma subsampling                       : 4:2:0<br>
Bit depth                                : 8 bits<br>
Scan type                                : Progressive<br>
Bits/(Pixel*Frame)                       : 0.117<br>
Stream size                              : 474 MiB (99%)<br>
Default                                  : Yes<br>
Forced                                   : No<br>
Color range                              : Limited<br>
Color primaries                          : BT.709<br>
Transfer characteristics                 : BT.709<br>
Matrix coefficients                      : BT.709<br>
<br>
Audio<br>
ID                                       : 2<br>
Format                                   : AAC LC<br>
Format/Info                              : Advanced Audio Codec Low Complexity<br>
Codec ID                                 : A_AAC-2<br>
Duration                                 : 4 min 33 s<br>
Bit rate                                 : 192 kb/s<br>
Channel(s)                               : 2 channels<br>
Channel layout                           : L R<br>
Sampling rate                            : 44.1 kHz<br>
Frame rate                               : 43.066 FPS (1024 SPF)<br>
Compression mode                         : Lossy<br>
Stream size                              : 6.26 MiB (1%)<br>
Default                                  : Yes<br>
Forced                                   : No</span></span><br>
<br>
<img src="https://i.imgur.com/XUpaUTZ.png" class="bbCodeImage LbImage" alt="[​IMG]" data-url="https://i.imgur.com/XUpaUTZ.png" style=""><br>
<br>
<span style="font-family: 'Courier New'"><span style="font-size: 12px"><i><b><span style="font-family: 'Tahoma'"><span style="font-size: 26px"><span style="color: rgb(0, 0, 255)">Click Here:</span></span></span></b></i></span></span><br>
<span style="font-family: 'Courier New'"><span style="font-size: 12px">



<div class="bbCodeBlock bbCodeVfcHH HiddenContent">
	<div class="attribution type">Hidden Content:</div>
	<blockquote>You must either reply or click 'Like' to see the hidden information contained here.</blockquote>
</div></span></span>
					<div class="messageTextEndMarker">&nbsp;</div>
				</blockquote>
			</article>]]></description>
                <author><![CDATA[austin_066]]></author>
                </item>

                
                <item>
                <title><![CDATA[【Actresses】Thandie Newton - Rogue S01 (2013)1080p]]></title>
                <link><![CDATA[https://sharemania.us/threads/thandie-newton-rogue-s01-2013-1080p.282376/]]></link>
                <description><![CDATA[<article>
				<blockquote class="messageText SelectQuoteContainer ugc baseHtml">
					
					Thandie Newton - Rogue S01 (2013)1080p<br>
<br>
<a href="https://imgbox.com/ex8pUCPf" target="_blank" class="externalLink" rel="nofollow"><img src="https://thumbs2.imgbox.com/55/62/ex8pUCPf_t.jpg" class="bbCodeImage LbImage" alt="[​IMG]" data-url="https://thumbs2.imgbox.com/55/62/ex8pUCPf_t.jpg"></a> <a href="https://imgbox.com/eq6Bkj8D" target="_blank" class="externalLink" rel="nofollow"><img src="https://thumbs2.imgbox.com/49/fd/eq6Bkj8D_t.jpg" class="bbCodeImage LbImage" alt="[​IMG]" data-url="https://thumbs2.imgbox.com/49/fd/eq6Bkj8D_t.jpg"></a> <a href="https://imgbox.com/h9VYaxoO" target="_blank" class="externalLink" rel="nofollow"><img src="https://thumbs2.imgbox.com/bd/92/h9VYaxoO_t.jpg" class="bbCodeImage LbImage" alt="[​IMG]" data-url="https://thumbs2.imgbox.com/bd/92/h9VYaxoO_t.jpg"></a> <a href="https://imgbox.com/cX3g4Gjc" target="_blank" class="externalLink" rel="nofollow"><img src="https://thumbs2.imgbox.com/e7/df/cX3g4Gjc_t.jpg" class="bbCodeImage LbImage" alt="[​IMG]" data-url="https://thumbs2.imgbox.com/e7/df/cX3g4Gjc_t.jpg"></a> <a href="https://imgbox.com/A6dP4uD7" target="_blank" class="externalLink" rel="nofollow"><img src="https://thumbs2.imgbox.com/ae/95/A6dP4uD7_t.jpg" class="bbCodeImage LbImage" alt="[​IMG]" data-url="https://thumbs2.imgbox.com/ae/95/A6dP4uD7_t.jpg"></a> <a href="https://imgbox.com/g6bRVXnC" target="_blank" class="externalLink" rel="nofollow"><img src="https://thumbs2.imgbox.com/a1/3f/g6bRVXnC_t.jpg" class="bbCodeImage LbImage" alt="[​IMG]" data-url="https://thumbs2.imgbox.com/a1/3f/g6bRVXnC_t.jpg"></a><br>
Duration: 00:01:38 Resolution: 1920x1080 Format: mp4 Size: 74.23 MB<br>
<a href="https://filejoker.net/nk4k6l4aofr7" target="_blank" class="externalLink" rel="nofollow">https://filejoker.net/nk4k6l4aofr7</a>
					<div class="messageTextEndMarker">&nbsp;</div>
				</blockquote>
			</article>]]></description>
                <author><![CDATA[piqeros]]></author>
                </item>

                
                <item>
                <title><![CDATA[【Requests】[REQ AUD] - springsteen lonely night in the park]]></title>
                <link><![CDATA[https://sharemania.us/threads/springsteen-lonely-night-in-the-park.282379/]]></link>
                <description><![CDATA[<article>
				<blockquote class="messageText SelectQuoteContainer ugc baseHtml">
					
					Bonjour, je recherche le single de Bruce Springsteen "lonely night in the park" en flac! merci
					<div class="messageTextEndMarker">&nbsp;</div>
				</blockquote>
			</article>]]></description>
                <author><![CDATA[Fab80]]></author>
                </item>

                
                <item>
                <title><![CDATA[【Singles (lossless)】ALAC - Blackstreet - Joy (Remixes) [US Retail, Maxi, CD-Single] {1994}]]></title>
                <link><![CDATA[https://sharemania.us/threads/blackstreet-joy-remixes-us-retail-maxi-cd-single-1994.282378/]]></link>
                <description><![CDATA[<article>
				<blockquote class="messageText SelectQuoteContainer ugc baseHtml">
					
					<img src="https://i.imgur.com/JgZIgaz.jpeg" class="bbCodeImage LbImage" alt="[​IMG]" data-url="https://i.imgur.com/JgZIgaz.jpeg" style=""> <br>
<b>Artist: </b>Blackstreet<br>
<b>Album: </b>Joy (Remixes) - Single<br>
<b>Genre: </b>R&amp;B/Soul<br>
<b>Year: </b>1994<br>
<b>Format: </b>6 x File, ALAC 16-bit/44.1 kHz, CD<br>
<b>Country: </b>US<br>
<b>Label: </b>Interscope Records, Atlantic<br>
<br>
<b><span style="text-decoration: underline">Tracklist:</span></b><br>
1. Joy (Album Version) [No Rap]  4:59<br>
2. Joy (Uptown Joy)  4:13<br>
3. Joy (Cool Joy)  4:55<br>
4. Joy (New Carnegie Mix)  4:07<br>
5. Joy (Latin Combo)  5:12<br>
6. Joy (Quiet Storm)  4:30<br>




<div class="bbCodeBlock bbCodeVfcHH HiddenContent">
	<div class="attribution type">Hidden Content:</div>
	<blockquote>You must reply before you can see the hidden data contained here.</blockquote>
</div>
					<div class="messageTextEndMarker">&nbsp;</div>
				</blockquote>
			</article>]]></description>
                <author><![CDATA[chozoa]]></author>
                </item>

                
                <item>
                <title><![CDATA[【UPSCALED】Britney Spears - Do Something (Starlight AI) ~60fps]]></title>
                <link><![CDATA[https://sharemania.us/threads/britney-spears-do-something-starlight-ai-60fps.282374/]]></link>
                <description><![CDATA[<article>
				<blockquote class="messageText SelectQuoteContainer ugc baseHtml">
					
					<span style="font-family: 'Courier New'"><span style="font-size: 12px">Video<br>
ID                                       : 1<br>
Format                                   : AVC<br>
Format/Info                              : Advanced Video Codec<br>
Format profile                           : Main@L4.2<br>
Format settings                          : CABAC / 1 Ref Frames<br>
Format settings, CABAC                   : Yes<br>
Format settings, Reference frames        : 1 frame<br>
Format settings, GOP                     : M=1, N=30<br>
Muxing mode                              : Container profile=Baseline@3.0<br>
Codec ID                                 : avc1<br>
Codec ID/Info                            : Advanced Video Coding<br>
Duration                                 : 3 min 22 s<br>
Bit rate                                 : 8 173 kb/s<br>
Width                                    : 1 920 pixels<br>
Height                                   : 1 080 pixels<br>
Display aspect ratio                     : 16:9<br>
Frame rate mode                          : Constant<br>
Frame rate                               : 60.000 FPS<br>
Standard                                 : Component<br>
Color space                              : YUV<br>
Chroma subsampling                       : 4:2:0<br>
Bit depth                                : 8 bits<br>
Scan type                                : Progressive<br>
Bits/(Pixel*Frame)                       : 0.066<br>
Stream size                              : 197 MiB (97%)<br>
Language                                 : English<br>
Color range                              : Limited<br>
Color primaries                          : BT.709<br>
Transfer characteristics                 : BT.709<br>
Matrix coefficients                      : BT.709<br>
Codec configuration box                  : avcC<br>
<br>
Audio<br>
ID                                       : 2<br>
Format                                   : AAC LC<br>
Format/Info                              : Advanced Audio Codec Low Complexity<br>
Codec ID                                 : mp4a-40-2<br>
Duration                                 : 3 min 22 s<br>
Source duration                          : 3 min 22 s<br>
Bit rate mode                            : Constant<br>
Bit rate                                 : 192 kb/s<br>
Channel(s)                               : 2 channels<br>
Channel layout                           : L R<br>
Sampling rate                            : 44.1 kHz<br>
Frame rate                               : 43.066 FPS (1024 SPF)<br>
Compression mode                         : Lossy<br>
Stream size                              : 4.64 MiB (2%)<br>
Source stream size                       : 4.64 MiB (2%)<br>
Title                                    : Stereo<br>
Language                                 : English<br>
Default                                  : Yes<br>
Alternate group                          : 1</span></span><br>
<br>
<img src="https://i.imgur.com/LHrrLoC.png" class="bbCodeImage LbImage" alt="[​IMG]" data-url="https://i.imgur.com/LHrrLoC.png" style=""><br>
<br>
<span style="font-family: 'Courier New'"><span style="font-size: 12px"><i><b><span style="font-family: 'Tahoma'"><span style="font-size: 26px"><span style="color: rgb(0, 0, 255)">Click Here:</span></span></span></b></i></span></span><br>
<span style="font-family: 'Courier New'"><span style="font-size: 12px">



<div class="bbCodeBlock bbCodeVfcHH HiddenContent">
	<div class="attribution type">Hidden Content:</div>
	<blockquote>You must either reply or click 'Like' to see the hidden information contained here.</blockquote>
</div></span></span>
					<div class="messageTextEndMarker">&nbsp;</div>
				</blockquote>
			</article>]]></description>
                <author><![CDATA[austin_066]]></author>
                </item>

                </channel></rss>